
<svg xmlns="http://www.w3.org/2000/svg" xmlns:xlink="http://www.w3.org/1999/xlink" version="1.1" x="0px" y="0px" style="fill:#9ae6b4;" viewBox="0 0 54 67.5" enable-background="new 0 0 54 54" xml:space="preserve"><path d="M48.676,17.928l3.658-4.357c0.355-0.424,0.299-1.055-0.123-1.41l-2.949-2.475c-0.424-0.354-1.055-0.299-1.408,0.125  l-3.404,4.057c-2.814-2.057-6.135-3.441-9.746-3.938V6.332h4.348c0.488,0,0.883-0.395,0.883-0.883V2.053  c0-0.488-0.395-0.883-0.883-0.883H24.486c-0.488,0-0.883,0.395-0.883,0.883v3.396c0,0.488,0.395,0.883,0.883,0.883h4.348v3.582  c-3.578,0.488-6.918,1.859-9.762,3.932l-3.387-4.035c-0.355-0.424-0.984-0.479-1.408-0.125l-2.949,2.475  c-0.424,0.355-0.479,0.986-0.123,1.41l3.643,4.342c-1.178,1.494-2.18,3.15-2.945,4.963c-0.377,0.889,0.039,1.916,0.93,2.293  c0.893,0.379,1.916-0.041,2.293-0.93c2.834-6.701,9.367-11.031,16.645-11.031c9.959,0,18.063,8.102,18.063,18.063  c0,9.959-8.104,18.061-18.063,18.061c-2.912,0-5.689-0.67-8.258-1.992c-0.857-0.443-1.914-0.105-2.357,0.754  s-0.105,1.914,0.754,2.357c3.025,1.559,6.436,2.381,9.861,2.381c11.889,0,21.563-9.672,21.563-21.561  C53.332,26.232,51.582,21.604,48.676,17.928z"/><path d="M35.469,31.938c5.896-7.014,6.248-9.041,5.85-9.439c-0.4-0.398-2.426-0.049-9.439,5.85  c-3.338,2.805-2.287,4.414-1.557,5.145C31.055,34.225,32.664,35.275,35.469,31.938z"/><path d="M21.271,29.316c0-0.828-0.67-1.5-1.5-1.5H2.17c-0.83,0-1.5,0.672-1.5,1.5s0.67,1.5,1.5,1.5h17.602  C20.602,30.816,21.271,30.145,21.271,29.316z"/><path d="M19.771,35.4H9.576c-0.828,0-1.5,0.672-1.5,1.5s0.672,1.5,1.5,1.5h10.195c0.83,0,1.5-0.672,1.5-1.5S20.602,35.4,19.771,35.4  z"/><path d="M19.771,42.984H5.076c-0.828,0-1.5,0.67-1.5,1.5c0,0.828,0.672,1.5,1.5,1.5h14.695c0.83,0,1.5-0.672,1.5-1.5  C21.271,43.654,20.602,42.984,19.771,42.984z"/></svg>